<svg width="23" height="22" viewBox="0 0 23 22" fill="none" xmlns="http://www.w3.org/2000/svg">
<path fill-rule="evenodd" clip-rule="evenodd" d="M11.5 2C6.52944 2 2.5 6.02944 2.5 11C2.5 15.9706 6.52944 20 11.5 20C16.4706 20 20.5 15.9706 20.5 11C20.5 6.02944 16.4706 2 11.5 2ZM0.5 11C0.5 4.92487 5.42487 0 11.5 0C17.5751 0 22.5 4.92487 22.5 11C22.5 17.0751 17.5751 22 11.5 22C5.42487 22 0.5 17.0751 0.5 11Z" fill="currentColor"/>
<path d="M5.40625 4C4.62988 4 4 4.67188 4 5.5V16.5C4 17.3281 4.62988 18 5.40625 18H17.5938C18.3701 18 19 17.3281 19 16.5V5.5C19 4.67188 18.3701 4 17.5938 4H5.40625ZM5.40625 5H8.51172C8.6084 5 8.6875 5.08438 8.6875 5.1875V5.8125C8.6875 5.91562 8.6084 6 8.51172 6H5.11328C5.0166 6 4.9375 5.91562 4.9375 5.8125V5.5C4.9375 5.225 5.14844 5 5.40625 5ZM17.8867 8H5.11328C5.0166 8 4.9375 7.91563 4.9375 7.8125V6.6875C4.9375 6.58437 5.0166 6.5 5.11328 6.5H9.15625L10.041 5.08437C10.0732 5.03125 10.1289 5 10.1875 5H17.5938C17.8516 5 18.0625 5.225 18.0625 5.5V7.8125C18.0625 7.91563 17.9834 8 17.8867 8ZM11.5 16.25C9.56055 16.25 7.98438 14.5688 7.98438 12.5C7.98438 10.4313 9.56055 8.75 11.5 8.75C13.4395 8.75 15.0156 10.4313 15.0156 12.5C15.0156 14.5688 13.4395 16.25 11.5 16.25ZM11.5 9.75C10.0791 9.75 8.92188 10.9844 8.92188 12.5C8.92188 14.0156 10.0791 15.25 11.5 15.25C12.9209 15.25 14.0781 14.0156 14.0781 12.5C14.0781 10.9844 12.9209 9.75 11.5 9.75ZM10.0938 13C9.83594 13 9.625 12.775 9.625 12.5C9.625 11.3969 10.4658 10.5 11.5 10.5C11.7578 10.5 11.9688 10.725 11.9688 11C11.9688 11.275 11.7578 11.5 11.5 11.5C10.9844 11.5 10.5625 11.95 10.5625 12.5C10.5625 12.775 10.3516 13 10.0938 13Z" fill="currentColor"/>
</svg>
