<svg viewBox="0 0 10 10" fill="none" xmlns="http://www.w3.org/2000/svg">
<path d="M0.9375 0.625C0.419922 0.625 0 1.04492 0 1.5625V8.4375C0 8.95508 0.419922 9.375 0.9375 9.375H9.0625C9.58008 9.375 10 8.95508 10 8.4375V1.5625C10 1.04492 9.58008 0.625 9.0625 0.625H0.9375ZM0.9375 1.25H3.00781C3.07227 1.25 3.125 1.30273 3.125 1.36719V1.75781C3.125 1.82227 3.07227 1.875 3.00781 1.875H0.742188C0.677734 1.875 0.625 1.82227 0.625 1.75781V1.5625C0.625 1.39062 0.765625 1.25 0.9375 1.25ZM9.25781 3.125H0.742188C0.677734 3.125 0.625 3.07227 0.625 3.00781V2.30469C0.625 2.24023 0.677734 2.1875 0.742188 2.1875H3.4375L4.02734 1.30273C4.04883 1.26953 4.08594 1.25 4.125 1.25H9.0625C9.23438 1.25 9.375 1.39062 9.375 1.5625V3.00781C9.375 3.07227 9.32227 3.125 9.25781 3.125ZM5 8.28125C3.70703 8.28125 2.65625 7.23047 2.65625 5.9375C2.65625 4.64453 3.70703 3.59375 5 3.59375C6.29297 3.59375 7.34375 4.64453 7.34375 5.9375C7.34375 7.23047 6.29297 8.28125 5 8.28125ZM5 4.21875C4.05273 4.21875 3.28125 4.99023 3.28125 5.9375C3.28125 6.88477 4.05273 7.65625 5 7.65625C5.94727 7.65625 6.71875 6.88477 6.71875 5.9375C6.71875 4.99023 5.94727 4.21875 5 4.21875ZM4.0625 6.25C3.89062 6.25 3.75 6.10938 3.75 5.9375C3.75 5.24805 4.31055 4.6875 5 4.6875C5.17188 4.6875 5.3125 4.82812 5.3125 5C5.3125 5.17188 5.17188 5.3125 5 5.3125C4.65625 5.3125 4.375 5.59375 4.375 5.9375C4.375 6.10938 4.23438 6.25 4.0625 6.25Z" fill="currentColor"/>
</svg>
