<svg width="11" height="11" viewBox="0 0 11 11" fill="none" xmlns="http://www.w3.org/2000/svg">
<path d="M10.0526 4.49884L9.79504 3.85488L9.33831 2.71294C8.94621 1.7328 8.01098 1.09961 6.95521 1.09961H4.04479C2.98925 1.09961 2.05379 1.7328 1.66169 2.71294L1.20496 3.85488L0.947375 4.49884C0.394625 4.70898 0 5.23973 0 5.86628V6.96628C0 7.33569 0.141167 7.66913 0.366667 7.92717V9.16628C0.366667 9.57121 0.695063 9.89961 1.1 9.89961H1.83333C2.23827 9.89961 2.56667 9.57121 2.56667 9.16628V8.43294H8.43333V9.16628C8.43333 9.57121 8.76173 9.89961 9.16667 9.89961H9.9C10.3049 9.89961 10.6333 9.57121 10.6333 9.16628V7.92717C10.8588 7.66936 11 7.33592 11 6.96628V5.86628C11 5.23973 10.6054 4.70898 10.0526 4.49884ZM3.0234 3.25767C3.19046 2.84013 3.59494 2.56628 4.04479 2.56628H6.95521C7.40506 2.56628 7.80954 2.84013 7.9766 3.25767L8.43333 4.39961H2.56667L3.0234 3.25767ZM1.83333 6.96169C1.39333 6.96169 1.1 6.66928 1.1 6.23065C1.1 5.79203 1.39333 5.49961 1.83333 5.49961C2.27333 5.49961 2.93333 6.15755 2.93333 6.59617C2.93333 7.0348 2.27333 6.96169 1.83333 6.96169ZM9.16667 6.96169C8.72667 6.96169 8.06667 7.0348 8.06667 6.59617C8.06667 6.15755 8.72667 5.49961 9.16667 5.49961C9.60667 5.49961 9.9 5.79203 9.9 6.23065C9.9 6.66928 9.60667 6.96169 9.16667 6.96169Z" fill="currentColor"/>
</svg>
