<svg width="18" height="14" viewBox="0 0 18 14" fill="none" xmlns="http://www.w3.org/2000/svg">
<path fill-rule="evenodd" clip-rule="evenodd" d="M14 2.16699C13.1716 2.16699 12.5 2.83857 12.5 3.66699C12.5 4.49542 13.1716 5.16699 14 5.16699C14.8284 5.16699 15.5 4.49542 15.5 3.66699C15.5 2.83857 14.8284 2.16699 14 2.16699ZM10.6449 2.66699C11.0752 1.22125 12.4145 0.166992 14 0.166992C15.933 0.166992 17.5 1.734 17.5 3.66699C17.5 5.59999 15.933 7.16699 14 7.16699C12.4145 7.16699 11.0752 6.11274 10.6449 4.66699L1.5 4.66699H0.5L0.5 2.66699H1.5L10.6449 2.66699ZM4 8.83366C3.17157 8.83366 2.5 9.50523 2.5 10.3337C2.5 11.1621 3.17157 11.8337 4 11.8337C4.82843 11.8337 5.5 11.1621 5.5 10.3337C5.5 9.50523 4.82843 8.83366 4 8.83366ZM0.5 10.3337C0.5 8.40066 2.067 6.83366 4 6.83366C5.58551 6.83366 6.92479 7.88791 7.35506 9.33366L16.5 9.33366H17.5V11.3337H16.5L7.35506 11.3337C6.92479 12.7794 5.58551 13.8337 4 13.8337C2.067 13.8337 0.5 12.2667 0.5 10.3337Z" fill="currentColor"/>
</svg>
