<svg width="7" height="10" viewBox="0 0 7 10" fill="none" xmlns="http://www.w3.org/2000/svg">
<path d="M4.36963 1.875C4.88721 1.875 5.30713 1.45508 5.30713 0.9375C5.30713 0.419922 4.88721 0 4.36963 0C3.85205 0 3.43213 0.419922 3.43213 0.9375C3.43213 1.45508 3.85205 1.875 4.36963 1.875ZM6.21533 4.78711L5.76025 4.55664L5.5708 3.98242C5.28369 3.11133 4.48291 2.50195 3.57471 2.5C2.87158 2.49805 2.48291 2.69727 1.75244 2.99219C1.33057 3.16211 0.984863 3.48438 0.781738 3.89453L0.650879 4.16016C0.498535 4.46875 0.621582 4.84375 0.928223 4.99805C1.23291 5.15234 1.604 5.02734 1.7583 4.71875L1.88916 4.45313C1.95752 4.31641 2.0708 4.20898 2.21143 4.15234L2.73486 3.94141L2.43799 5.12695C2.33643 5.5332 2.4458 5.96484 2.729 6.27539L3.89893 7.55274C4.03955 7.70703 4.13916 7.89258 4.18994 8.09375L4.54736 9.52539C4.63135 9.85938 4.97119 10.0645 5.30518 9.98047C5.63916 9.89649 5.84424 9.55664 5.76025 9.22266L5.32666 7.48438C5.27588 7.2832 5.17627 7.0957 5.03564 6.94336L4.14697 5.97266L4.48291 4.63086L4.59033 4.95313C4.69385 5.26758 4.9165 5.52734 5.20947 5.67578L5.66455 5.90625C5.96924 6.06055 6.34033 5.93555 6.49463 5.62695C6.64502 5.32031 6.52197 4.94141 6.21533 4.78711ZM1.74463 7.53516C1.68213 7.69336 1.58838 7.83594 1.46729 7.95508L0.490723 8.93359C0.246582 9.17774 0.246582 9.57422 0.490723 9.81836C0.734863 10.0625 1.12939 10.0625 1.37354 9.81836L2.53369 8.6582C2.65283 8.53906 2.74658 8.39649 2.81103 8.23828L3.07471 7.57813C1.99463 6.40039 2.31885 6.76172 2.14893 6.5293L1.74463 7.53516Z" fill="currentColor"/>
</svg>
