<svg width="16" height="16" viewBox="0 0 16 16" fill="none" xmlns="http://www.w3.org/2000/svg">
<path fill-rule="evenodd" clip-rule="evenodd" d="M1.98663 8.00723C1.98663 7.12357 2.70298 6.40723 3.58663 6.40723C4.47029 6.40723 5.18663 7.12357 5.18663 8.00723C5.18663 8.89088 4.47029 9.60723 3.58663 9.60723C2.70297 9.60723 1.98663 8.89088 1.98663 8.00723ZM6.40724 8.00723C6.40724 7.12357 7.12358 6.40723 8.00724 6.40723C8.89089 6.40723 9.60724 7.12357 9.60724 8.00723C9.60724 8.89088 8.8909 9.60723 8.00724 9.60723C7.12358 9.60723 6.40724 8.89088 6.40724 8.00723ZM10.8138 8.00723C10.8138 7.12357 11.5301 6.40723 12.4138 6.40723C13.2974 6.40723 14.0138 7.12357 14.0138 8.00723C14.0138 8.89088 13.2974 9.60723 12.4138 9.60723C11.5301 9.60723 10.8138 8.89088 10.8138 8.00723Z" fill="currentColor"/>
</svg>
