<svg width="17" height="16" viewBox="0 0 17 16" fill="none" xmlns="http://www.w3.org/2000/svg">
<path fill-rule="evenodd" clip-rule="evenodd" d="M7.72883 1.99414C4.83779 1.99414 2.49414 4.33779 2.49414 7.22883C2.49414 10.1199 4.83779 12.4635 7.72883 12.4635C9.13363 12.4635 10.4092 11.9102 11.3494 11.0095C11.3727 10.9803 11.3979 10.952 11.425 10.925C11.452 10.8979 11.4803 10.8727 11.5095 10.8494C12.4102 9.90919 12.9635 8.63363 12.9635 7.22883C12.9635 4.33779 10.6199 1.99414 7.72883 1.99414ZM13.5028 11.5886C14.4197 10.3762 14.9635 8.86604 14.9635 7.22883C14.9635 3.23322 11.7244 -0.00585938 7.72883 -0.00585938C3.73322 -0.00585938 0.494141 3.23322 0.494141 7.22883C0.494141 11.2244 3.73322 14.4635 7.72883 14.4635C9.36604 14.4635 10.8762 13.9197 12.0886 13.0028L15.051 15.9652L16.4652 14.551L13.5028 11.5886Z" fill="currentColor"/>
</svg>
