<svg width="24" height="24" viewBox="0 0 24 24" fill="none" xmlns="http://www.w3.org/2000/svg">
<path fill-rule="evenodd" clip-rule="evenodd" d="M12 3C7.02944 3 3 7.02944 3 12C3 16.9706 7.02944 21 12 21C16.9706 21 21 16.9706 21 12C21 7.02944 16.9706 3 12 3ZM1 12C1 5.92487 5.92487 1 12 1C18.0751 1 23 5.92487 23 12C23 18.0751 18.0751 23 12 23C5.92487 23 1 18.0751 1 12Z" fill="currentColor"/>
<path d="M13.25 15.2495H10.75C10.3344 15.2495 10 14.9359 10 14.5462V9.62363H7.25938C6.70312 9.62363 6.425 8.99365 6.81875 8.62446L11.5719 4.16482C11.8063 3.94506 12.1906 3.94506 12.425 4.16482L17.1812 8.62446C17.575 8.99365 17.2969 9.62363 16.7406 9.62363H14V14.5462C14 14.9359 13.6656 15.2495 13.25 15.2495ZM20 15.015V18.2968C20 18.6865 19.6656 19 19.25 19H4.75C4.33437 19 4 18.6865 4 18.2968V15.015C4 14.6253 4.33437 14.3118 4.75 14.3118H9V14.5462C9 15.4516 9.78438 16.1871 10.75 16.1871H13.25C14.2156 16.1871 15 15.4516 15 14.5462V14.3118H19.25C19.6656 14.3118 20 14.6253 20 15.015ZM16.125 17.5935C16.125 17.2712 15.8438 17.0075 15.5 17.0075C15.1562 17.0075 14.875 17.2712 14.875 17.5935C14.875 17.9159 15.1562 18.1796 15.5 18.1796C15.8438 18.1796 16.125 17.9159 16.125 17.5935ZM18.125 17.5935C18.125 17.2712 17.8438 17.0075 17.5 17.0075C17.1562 17.0075 16.875 17.2712 16.875 17.5935C16.875 17.9159 17.1562 18.1796 17.5 18.1796C17.8438 18.1796 18.125 17.9159 18.125 17.5935Z" fill="currentColor"/>
</svg>
