<svg width="176" height="48" viewBox="0 0 176 48" fill="none" xmlns="http://www.w3.org/2000/svg">
<path fill-rule="evenodd" clip-rule="evenodd" d="M21 16C17.134 16 14 19.134 14 23C14 26.866 17.134 30 21 30C22.8859 30 24.5977 29.2542 25.8564 28.0414C25.8827 28.0072 25.9115 27.9742 25.9429 27.9429C25.9742 27.9115 26.0072 27.8827 26.0414 27.8564C27.2542 26.5977 28 24.8859 28 23C28 19.134 24.866 16 21 16ZM28.0319 28.6177C29.2635 27.078 30 25.125 30 23C30 18.0294 25.9706 14 21 14C16.0294 14 12 18.0294 12 23C12 27.9706 16.0294 32 21 32C23.125 32 25.078 31.2635 26.6177 30.0319L30.5955 34.0098L32.0098 32.5955L28.0319 28.6177Z" fill="white"/>
<path fill-rule="evenodd" clip-rule="evenodd" d="M61.0505 15.0503C62.3632 13.7375 64.1437 13 66.0002 13C67.8567 13 69.6372 13.7375 70.95 15.0503C72.2627 16.363 73.0002 18.1435 73.0002 20C73.0002 22.9127 73.7322 24.8439 74.4996 26.0771L74.5114 26.096C74.8687 26.6703 75.1512 27.1243 75.3416 27.4547C75.4371 27.6202 75.524 27.7797 75.5884 27.9215C75.6205 27.9922 75.6564 28.079 75.6845 28.1733C75.7078 28.2515 75.7522 28.4187 75.7356 28.6223C75.7244 28.7591 75.6965 28.9928 75.5623 29.2343C75.4282 29.4758 75.2445 29.623 75.1342 29.7047C74.8839 29.8904 74.5965 29.9329 74.5006 29.947L74.4961 29.9477C74.3487 29.9695 74.1815 29.9804 74.0127 29.9869C73.6774 30 73.2133 30 72.6361 30H72.6114H59.3891H59.3644C58.7872 30 58.323 30 57.9878 29.9869C57.819 29.9804 57.6517 29.9695 57.5043 29.9477L57.4999 29.947C57.4039 29.9329 57.1165 29.8904 56.8662 29.7047C56.756 29.623 56.5723 29.4758 56.4381 29.2343C56.304 28.9928 56.2761 28.7591 56.2649 28.6223C56.2482 28.4187 56.2926 28.2515 56.3159 28.1733C56.344 28.079 56.38 27.9922 56.4121 27.9215C56.4765 27.7797 56.5634 27.6202 56.6588 27.4547C56.8492 27.1243 57.1317 26.6703 57.489 26.0961L57.5008 26.0771C58.2682 24.8439 59.0002 22.9127 59.0002 20C59.0002 18.1435 59.7377 16.363 61.0505 15.0503ZM66.0002 15C64.6741 15 63.4024 15.5268 62.4647 16.4645C61.527 17.4021 61.0002 18.6739 61.0002 20C61.0002 23.2677 60.1732 25.5681 59.1989 27.1337C58.9861 27.4758 58.8084 27.7614 58.6633 27.9988C58.8699 28 59.1102 28 59.3891 28H72.6114C72.8902 28 73.1306 28 73.3371 27.9988C73.192 27.7614 73.0144 27.4758 72.8015 27.1337C71.8273 25.5681 71.0002 23.2677 71.0002 20C71.0002 18.6739 70.4734 17.4021 69.5358 16.4645C68.5981 15.5268 67.3263 15 66.0002 15ZM63.0002 33C63.0002 32.4477 63.4479 32 64.0002 32H68.0002C68.5525 32 69.0002 32.4477 69.0002 33C69.0002 33.5523 68.5525 34 68.0002 34H64.0002C63.4479 34 63.0002 33.5523 63.0002 33Z" fill="white"/>
<rect x="70" y="4" width="16" height="16" rx="8" fill="#FFCF08"/>
<path d="M79.0278 16H77.8378V10.48H76.2178V9.66C77.2678 9.63 77.7778 9.54 78.1478 8.75H79.0278V16Z" fill="#1D1D1D"/>
<path fill-rule="evenodd" clip-rule="evenodd" d="M110 16C108.067 16 106.5 17.567 106.5 19.5C106.5 21.433 108.067 23 110 23C111.933 23 113.5 21.433 113.5 19.5C113.5 17.567 111.933 16 110 16ZM104.5 19.5C104.5 16.4624 106.962 14 110 14C113.038 14 115.5 16.4624 115.5 19.5C115.5 22.5376 113.038 25 110 25C106.962 25 104.5 22.5376 104.5 19.5ZM110 29C106.809 29 103.893 30.389 101.728 32.686C101.349 33.0878 100.716 33.1065 100.314 32.7276C99.9122 32.3487 99.8935 31.7158 100.272 31.314C102.778 28.6562 106.205 27 110 27C113.795 27 117.222 28.6562 119.728 31.314C120.106 31.7158 120.088 32.3487 119.686 32.7276C119.284 33.1065 118.651 33.0878 118.272 32.686C116.107 30.389 113.191 29 110 29Z" fill="white"/>
<rect x="114" y="4" width="16" height="16" rx="8" fill="#FFCF08"/>
<path d="M123.028 16H121.838V10.48H120.218V9.66C121.268 9.63 121.778 9.54 122.148 8.75H123.028V16Z" fill="#1D1D1D"/>
<path fill-rule="evenodd" clip-rule="evenodd" d="M146 16.25C145.586 16.25 145.25 16.5858 145.25 17C145.25 17.4142 145.586 17.75 146 17.75L162 17.75C162.414 17.75 162.75 17.4142 162.75 17C162.75 16.5858 162.414 16.25 162 16.25L146 16.25ZM145.25 24C145.25 23.5858 145.586 23.25 146 23.25L162 23.25C162.414 23.25 162.75 23.5858 162.75 24C162.75 24.4142 162.414 24.75 162 24.75L146 24.75C145.586 24.75 145.25 24.4142 145.25 24ZM145.25 31C145.25 30.5858 145.586 30.25 146 30.25L162 30.25C162.414 30.25 162.75 30.5858 162.75 31C162.75 31.4142 162.414 31.75 162 31.75L146 31.75C145.586 31.75 145.25 31.4142 145.25 31Z" fill="white"/>
</svg>
